<svg xmlns="http://www.w3.org/2000/svg" xmlns:xlink="http://www.w3.org/1999/xlink" width="180" height="180" viewBox="0 0 180 180">
  <defs>
    <filter id="Ret창ngulo_3835" x="0" y="0" width="180" height="180" filterUnits="userSpaceOnUse">
      <feOffset dy="6" input="SourceAlpha"/>
      <feGaussianBlur stdDeviation="5.5" result="blur"/>
      <feFlood flood-opacity="0.161"/>
      <feComposite operator="in" in2="blur"/>
      <feComposite in="SourceGraphic"/>
    </filter>
    <linearGradient id="linear-gradient" y1="0.5" x2="1" y2="0.5" gradientUnits="objectBoundingBox">
      <stop offset="0" stop-color="#f26522"/>
      <stop offset="0.284" stop-color="#f23f16"/>
      <stop offset="0.581" stop-color="#f21f0d"/>
      <stop offset="0.83" stop-color="#f20c07"/>
      <stop offset="1" stop-color="#f20505"/>
    </linearGradient>
    <linearGradient id="linear-gradient-2" x1="21.812" y1="6.845" x2="23.334" y2="6.148" gradientUnits="objectBoundingBox">
      <stop offset="0" stop-color="#f26522"/>
      <stop offset="0.062" stop-color="#f25a1e"/>
      <stop offset="0.304" stop-color="#f23513"/>
      <stop offset="0.528" stop-color="#f21a0b"/>
      <stop offset="0.728" stop-color="#f20a06"/>
      <stop offset="0.883" stop-color="#f20505"/>
    </linearGradient>
  </defs>
  <g id="Grupo_10074" data-name="Grupo 10074" transform="translate(-204.369 -1419.369)">
    <g transform="matrix(1, 0, 0, 1, 204.37, 1419.37)" filter="url(#Ret창ngulo_3835)">
      <rect id="Ret창ngulo_3835-2" data-name="Ret창ngulo 3835" width="147" height="147" rx="28" transform="translate(16.5 10.5)" fill="#fff"/>
    </g>
    <g id="Grupo_10073" data-name="Grupo 10073" transform="translate(236.732 1447.335)">
      <path id="Caminho_4572" data-name="Caminho 4572" d="M258.445,195.084l-13.867,0c-3.871.034-8.391,3.515-8.391,10.11v13.415l45.661.005v-.126A23.408,23.408,0,0,0,258.445,195.084Z" transform="translate(-166.93 -149.425)" fill="url(#linear-gradient)"/>
      <path id="Caminho_4573" data-name="Caminho 4573" d="M237.507,205.974c.644-7.179,5.613-10.768,9.939-10.891h-2.868c-3.871.034-8.391,3.515-8.391,10.11v13.415h.186C236.762,214.278,237.134,210.136,237.507,205.974Z" transform="translate(-166.93 -149.425)" fill="#990d0d" style="mix-blend-mode: multiply;isolation: isolate"/>
      <path id="Caminho_4574" data-name="Caminho 4574" d="M192.156,218.594c0,18.1,0,27.566,0,45.661a23.588,23.588,0,0,0,23.518-23.519V205.189c0-6.628,4.565-10.113,8.448-10.113h-8.449A23.587,23.587,0,0,0,192.156,218.594Z" transform="translate(-146.417 -149.423)" fill="url(#linear-gradient-2)"/>
      <path id="Caminho_4575" data-name="Caminho 4575" d="M175.7,145.173,175.7,109.6a23.529,23.529,0,0,0-23.529,23.526l0,22.12-14.07,0h-8.05a23.529,23.529,0,0,0-23.526,23.529l30.222-.005v0l13.425,0v-.007A25.54,25.54,0,0,1,175.7,153.252h.007v-8.079Z" transform="translate(-106.525 -109.605)" fill="#f20505"/>
    </g>
  </g>
</svg>
