<svg xmlns="http://www.w3.org/2000/svg" xmlns:xlink="http://www.w3.org/1999/xlink" width="96" height="94" viewBox="0 0 96 94">
  <defs>
    <filter id="União_2" x="0" y="0" width="96" height="94" filterUnits="userSpaceOnUse">
      <feOffset dy="3" input="SourceAlpha"/>
      <feGaussianBlur stdDeviation="3" result="blur"/>
      <feFlood flood-opacity="0.161"/>
      <feComposite operator="in" in2="blur"/>
      <feComposite in="SourceGraphic"/>
    </filter>
  </defs>
  <g id="Grupo_10126" data-name="Grupo 10126" transform="translate(-1254 -308)">
    <g id="Grupo_10101" data-name="Grupo 10101" transform="translate(1263 313.662)">
      <g transform="matrix(1, 0, 0, 1, -9, -5.66)" filter="url(#União_2)">
        <path id="União_2-2" data-name="União 2" d="M32.238,64.713H16a16,16,0,0,1-16-16V16A16,16,0,0,1,16,0H62A16,16,0,0,1,78,16V48.713a16,16,0,0,1-16,16H45.762L39,76Z" transform="translate(9 6)" fill="#fff"/>
      </g>
    </g>
    <g id="Grupo_10104" data-name="Grupo 10104" transform="translate(1281.49 326.49)">
      <path id="Caminho_4592" data-name="Caminho 4592" d="M0,0H41.02V41.02H0Z" fill="none"/>
      <line id="Linha_24" data-name="Linha 24" x2="0.017" transform="translate(25.637 13.673)" fill="none" stroke="#056cf2" stroke-linecap="round" stroke-linejoin="round" stroke-width="2"/>
      <rect id="Retângulo_3842" data-name="Retângulo 3842" width="28" height="28" rx="3" transform="translate(6.51 6.51)" fill="none" stroke="#056cf2" stroke-linecap="round" stroke-linejoin="round" stroke-width="2"/>
      <path id="Caminho_4593" data-name="Caminho 4593" d="M4,18.312l6.837-6.837a3.443,3.443,0,0,1,5.127,0l8.546,8.546" transform="translate(2.837 7.326)" fill="none" stroke="#056cf2" stroke-linecap="round" stroke-linejoin="round" stroke-width="2"/>
      <path id="Caminho_4594" data-name="Caminho 4594" d="M14,15.184l1.709-1.709a3.443,3.443,0,0,1,5.127,0l3.418,3.418" transform="translate(9.928 8.744)" fill="none" stroke="#056cf2" stroke-linecap="round" stroke-linejoin="round" stroke-width="2"/>
    </g>
  </g>
</svg>
