<svg xmlns="http://www.w3.org/2000/svg" xmlns:xlink="http://www.w3.org/1999/xlink" width="81" height="80" viewBox="0 0 81 80">
  <defs>
    <filter id="Uni達o_2" x="0" y="0" width="81" height="80" filterUnits="userSpaceOnUse">
      <feOffset dy="3" input="SourceAlpha"/>
      <feGaussianBlur stdDeviation="3" result="blur"/>
      <feFlood flood-opacity="0.161"/>
      <feComposite operator="in" in2="blur"/>
      <feComposite in="SourceGraphic"/>
    </filter>
  </defs>
  <g id="Grupo_10125" data-name="Grupo 10125" transform="translate(-1175 -267)">
    <g transform="matrix(1, 0, 0, 1, 1175, 267)" filter="url(#Uni達o_2)">
      <path id="Uni達o_2-2" data-name="Uni達o 2" d="M26.039,52.792H15a15,15,0,0,1-15-15V15A15,15,0,0,1,15,0H48A15,15,0,0,1,63,15V37.792a15,15,0,0,1-15,15H36.961L31.5,62Z" transform="translate(9 6)" fill="#fff"/>
    </g>
    <g id="Grupo_10113" data-name="Grupo 10113" transform="translate(1193.779 278.779)">
      <path id="Caminho_4579" data-name="Caminho 4579" d="M0,0H42.442V42.442H0Z" fill="none"/>
      <circle id="Elipse_47" data-name="Elipse 47" cx="16" cy="16" r="16" transform="translate(5.221 5.221)" fill="none" stroke="#056cf2" stroke-linecap="round" stroke-linejoin="round" stroke-width="2"/>
      <line id="Linha_14" data-name="Linha 14" x2="0.018" transform="translate(15.916 17.684)" fill="none" stroke="#056cf2" stroke-linecap="round" stroke-linejoin="round" stroke-width="2"/>
      <line id="Linha_15" data-name="Linha 15" x2="0.018" transform="translate(26.526 17.684)" fill="none" stroke="#056cf2" stroke-linecap="round" stroke-linejoin="round" stroke-width="2"/>
      <path id="Caminho_4580" data-name="Caminho 4580" d="M9.5,15a6.189,6.189,0,0,0,8.842,0" transform="translate(7.3 11.526)" fill="none" stroke="#056cf2" stroke-linecap="round" stroke-linejoin="round" stroke-width="2"/>
    </g>
  </g>
</svg>
