<svg xmlns="http://www.w3.org/2000/svg" xmlns:xlink="http://www.w3.org/1999/xlink" width="145" height="143" viewBox="0 0 145 143">
  <defs>
    <filter id="Uni達o_2" x="0" y="0" width="145" height="143" filterUnits="userSpaceOnUse">
      <feOffset dy="3" input="SourceAlpha"/>
      <feGaussianBlur stdDeviation="3" result="blur"/>
      <feFlood flood-opacity="0.161"/>
      <feComposite operator="in" in2="blur"/>
      <feComposite in="SourceGraphic"/>
    </filter>
  </defs>
  <g id="Grupo_10072" data-name="Grupo 10072" transform="translate(-281.001 -1125.768)">
    <g id="Grupo_10065" data-name="Grupo 10065" transform="translate(290 1132)">
      <g transform="matrix(1, 0, 0, 1, -9, -6.23)" filter="url(#Uni達o_2)">
        <path id="Uni達o_2-2" data-name="Uni達o 2" d="M52.491,106.436H24a24,24,0,0,1-24-24V24A24,24,0,0,1,24,0h79a24,24,0,0,1,24,24V82.436a24,24,0,0,1-24,24H74.509L63.5,125Z" transform="translate(9 6)" fill="#fff"/>
      </g>
    </g>
    <g id="Grupo_10059" data-name="Grupo 10059" transform="translate(302.33 1138.43)">
      <path id="Caminho_4559" data-name="Caminho 4559" d="M0,0H103.045V103.045H0Z" fill="none"/>
      <g id="Grupo_10058" data-name="Grupo 10058" transform="translate(15.091 40.852) rotate(-45)">
        <line id="Linha_8" data-name="Linha 8" x2="0.043" transform="translate(0 51.523)" fill="none" stroke="#056cf2" stroke-linecap="round" stroke-linejoin="round" stroke-width="4"/>
        <path id="Caminho_4560" data-name="Caminho 4560" d="M0,0A17.174,17.174,0,0,1,17.174,17.174" transform="translate(0 34.348)" fill="none" stroke="#056cf2" stroke-linecap="round" stroke-linejoin="round" stroke-width="4"/>
        <path id="Caminho_4561" data-name="Caminho 4561" d="M0,0A34.348,34.348,0,0,1,34.348,34.348" transform="translate(0 17.174)" fill="none" stroke="#056cf2" stroke-linecap="round" stroke-linejoin="round" stroke-width="4"/>
        <path id="Caminho_4562" data-name="Caminho 4562" d="M0,0A51.523,51.523,0,0,1,51.523,51.523" fill="none" stroke="#056cf2" stroke-linecap="round" stroke-linejoin="round" stroke-width="4"/>
      </g>
    </g>
  </g>
</svg>
