<svg xmlns="http://www.w3.org/2000/svg" xmlns:xlink="http://www.w3.org/1999/xlink" width="141" height="141" viewBox="0 0 141 141">
  <defs>
    <filter id="Ret창ngulo_3835" x="0" y="0" width="141" height="141" filterUnits="userSpaceOnUse">
      <feOffset dy="6" input="SourceAlpha"/>
      <feGaussianBlur stdDeviation="5.5" result="blur"/>
      <feFlood flood-opacity="0.161"/>
      <feComposite operator="in" in2="blur"/>
      <feComposite in="SourceGraphic"/>
    </filter>
  </defs>
  <g id="Grupo_10090" data-name="Grupo 10090" transform="translate(-343.136 -1431.136)">
    <g id="Grupo_10075" data-name="Grupo 10075" transform="translate(360 1442)">
      <g transform="matrix(1, 0, 0, 1, -16.86, -10.86)" filter="url(#Ret창ngulo_3835)">
        <rect id="Ret창ngulo_3835-2" data-name="Ret창ngulo 3835" width="108" height="108" rx="28" transform="translate(16.5 10.5)" fill="#fff"/>
      </g>
    </g>
    <g id="Grupo_10091" data-name="Grupo 10091" transform="translate(389.636 1471.636)">
      <path id="Caminho_4584" data-name="Caminho 4584" d="M0,0H48V48H0Z" fill="none"/>
      <path id="Caminho_4585" data-name="Caminho 4585" d="M4,17v4a4,4,0,0,0,4,4H32a4,4,0,0,0,4-4V17" transform="translate(4 17)" fill="none" stroke="#056cf2" stroke-linecap="round" stroke-linejoin="round" stroke-width="3"/>
      <path id="Caminho_4586" data-name="Caminho 4586" d="M7,11,17,21,27,11" transform="translate(7 11)" fill="none" stroke="#056cf2" stroke-linecap="round" stroke-linejoin="round" stroke-width="3"/>
      <line id="Linha_19" data-name="Linha 19" y2="24" transform="translate(24 8)" fill="none" stroke="#056cf2" stroke-linecap="round" stroke-linejoin="round" stroke-width="3"/>
    </g>
  </g>
</svg>
