<svg xmlns="http://www.w3.org/2000/svg" width="131" height="78" viewBox="0 0 131 78">
  <g id="Grupo_10108" data-name="Grupo 10108" transform="translate(1366.839 807.083) rotate(180)">
    <g id="Grupo_10049" data-name="Grupo 10049" transform="translate(1235.839 729.083)">
      <circle id="Elipse_39" data-name="Elipse 39" cx="4" cy="4" r="4" transform="translate(0 0)" fill="#056cf2"/>
      <circle id="Elipse_34" data-name="Elipse 34" cx="4" cy="4" r="4" transform="translate(70 0)" fill="#056cf2" opacity="0.4"/>
      <circle id="Elipse_37" data-name="Elipse 37" cx="4" cy="4" r="4" transform="translate(35 0)" fill="#056cf2" opacity="0.7"/>
      <ellipse id="Elipse_33" data-name="Elipse 33" cx="4.5" cy="4" rx="4.5" ry="4" transform="translate(105 0)" fill="#056cf2" opacity="0.2"/>
      <ellipse id="Elipse_38" data-name="Elipse 38" cx="4.5" cy="4" rx="4.5" ry="4" transform="translate(17 0)" fill="#056cf2"/>
      <circle id="Elipse_35" data-name="Elipse 35" cx="4" cy="4" r="4" transform="translate(88 0)" fill="#056cf2" opacity="0.3"/>
      <circle id="Elipse_36" data-name="Elipse 36" cx="4" cy="4" r="4" transform="translate(53 0)" fill="#056cf2" opacity="0.5"/>
      <circle id="Elipse_32" data-name="Elipse 32" cx="4" cy="4" r="4" transform="translate(123 0)" fill="#056cf2" opacity="0.1"/>
    </g>
    <g id="Grupo_10052" data-name="Grupo 10052" transform="translate(1235.839 746.44)">
      <ellipse id="Elipse_39-2" data-name="Elipse 39" cx="4" cy="4.5" rx="4" ry="4.5" transform="translate(0 -0.357)" fill="#056cf2"/>
      <ellipse id="Elipse_34-2" data-name="Elipse 34" cx="4" cy="4.5" rx="4" ry="4.5" transform="translate(70 -0.357)" fill="#056cf2" opacity="0.4"/>
      <ellipse id="Elipse_37-2" data-name="Elipse 37" cx="4" cy="4.5" rx="4" ry="4.5" transform="translate(35 -0.357)" fill="#056cf2" opacity="0.7"/>
      <circle id="Elipse_33-2" data-name="Elipse 33" cx="4.5" cy="4.5" r="4.5" transform="translate(105 -0.357)" fill="#056cf2" opacity="0.2"/>
      <circle id="Elipse_38-2" data-name="Elipse 38" cx="4.5" cy="4.5" r="4.5" transform="translate(17 -0.357)" fill="#056cf2"/>
      <ellipse id="Elipse_35-2" data-name="Elipse 35" cx="4" cy="4.5" rx="4" ry="4.5" transform="translate(88 -0.357)" fill="#056cf2" opacity="0.3"/>
      <ellipse id="Elipse_36-2" data-name="Elipse 36" cx="4" cy="4.5" rx="4" ry="4.5" transform="translate(53 -0.357)" fill="#056cf2" opacity="0.5"/>
      <ellipse id="Elipse_32-2" data-name="Elipse 32" cx="4" cy="4.5" rx="4" ry="4.5" transform="translate(123 -0.357)" fill="#056cf2" opacity="0.1"/>
    </g>
    <g id="Grupo_10053" data-name="Grupo 10053" transform="translate(1235.839 764.441)">
      <circle id="Elipse_39-3" data-name="Elipse 39" cx="4" cy="4" r="4" transform="translate(0 -0.358)" fill="#056cf2"/>
      <circle id="Elipse_34-3" data-name="Elipse 34" cx="4" cy="4" r="4" transform="translate(70 -0.358)" fill="#056cf2" opacity="0.4"/>
      <circle id="Elipse_37-3" data-name="Elipse 37" cx="4" cy="4" r="4" transform="translate(35 -0.358)" fill="#056cf2" opacity="0.7"/>
      <ellipse id="Elipse_33-3" data-name="Elipse 33" cx="4.5" cy="4" rx="4.5" ry="4" transform="translate(105 -0.358)" fill="#056cf2" opacity="0.2"/>
      <ellipse id="Elipse_38-3" data-name="Elipse 38" cx="4.5" cy="4" rx="4.5" ry="4" transform="translate(17 -0.358)" fill="#056cf2"/>
      <circle id="Elipse_35-3" data-name="Elipse 35" cx="4" cy="4" r="4" transform="translate(88 -0.358)" fill="#056cf2" opacity="0.3"/>
      <circle id="Elipse_36-3" data-name="Elipse 36" cx="4" cy="4" r="4" transform="translate(53 -0.358)" fill="#056cf2" opacity="0.5"/>
      <circle id="Elipse_32-3" data-name="Elipse 32" cx="4" cy="4" r="4" transform="translate(123 -0.358)" fill="#056cf2" opacity="0.1"/>
    </g>
    <g id="Grupo_10054" data-name="Grupo 10054" transform="translate(1235.839 781.798)">
      <circle id="Elipse_39-4" data-name="Elipse 39" cx="4" cy="4" r="4" transform="translate(0 0.285)" fill="#056cf2"/>
      <circle id="Elipse_34-4" data-name="Elipse 34" cx="4" cy="4" r="4" transform="translate(70 0.285)" fill="#056cf2" opacity="0.4"/>
      <circle id="Elipse_37-4" data-name="Elipse 37" cx="4" cy="4" r="4" transform="translate(35 0.285)" fill="#056cf2" opacity="0.7"/>
      <ellipse id="Elipse_33-4" data-name="Elipse 33" cx="4.5" cy="4" rx="4.5" ry="4" transform="translate(105 0.285)" fill="#056cf2" opacity="0.2"/>
      <ellipse id="Elipse_38-4" data-name="Elipse 38" cx="4.5" cy="4" rx="4.5" ry="4" transform="translate(17 0.285)" fill="#056cf2"/>
      <circle id="Elipse_35-4" data-name="Elipse 35" cx="4" cy="4" r="4" transform="translate(88 0.285)" fill="#056cf2" opacity="0.3"/>
      <circle id="Elipse_36-4" data-name="Elipse 36" cx="4" cy="4" r="4" transform="translate(53 0.285)" fill="#056cf2" opacity="0.5"/>
      <circle id="Elipse_32-4" data-name="Elipse 32" cx="4" cy="4" r="4" transform="translate(123 0.285)" fill="#056cf2" opacity="0.1"/>
    </g>
    <g id="Grupo_10055" data-name="Grupo 10055" transform="translate(1235.839 799.156)">
      <circle id="Elipse_39-5" data-name="Elipse 39" cx="4" cy="4" r="4" transform="translate(0 -0.072)" fill="#056cf2"/>
      <circle id="Elipse_34-5" data-name="Elipse 34" cx="4" cy="4" r="4" transform="translate(70 -0.072)" fill="#056cf2" opacity="0.4"/>
      <circle id="Elipse_37-5" data-name="Elipse 37" cx="4" cy="4" r="4" transform="translate(35 -0.072)" fill="#056cf2" opacity="0.7"/>
      <ellipse id="Elipse_33-5" data-name="Elipse 33" cx="4.5" cy="4" rx="4.5" ry="4" transform="translate(105 -0.072)" fill="#056cf2" opacity="0.2"/>
      <ellipse id="Elipse_38-5" data-name="Elipse 38" cx="4.5" cy="4" rx="4.5" ry="4" transform="translate(17 -0.072)" fill="#056cf2"/>
      <circle id="Elipse_35-5" data-name="Elipse 35" cx="4" cy="4" r="4" transform="translate(88 -0.072)" fill="#056cf2" opacity="0.3"/>
      <circle id="Elipse_36-5" data-name="Elipse 36" cx="4" cy="4" r="4" transform="translate(53 -0.072)" fill="#056cf2" opacity="0.5"/>
      <circle id="Elipse_32-5" data-name="Elipse 32" cx="4" cy="4" r="4" transform="translate(123 -0.072)" fill="#056cf2" opacity="0.1"/>
    </g>
  </g>
</svg>
