<svg xmlns="http://www.w3.org/2000/svg" width="171" height="102" viewBox="0 0 171 102">
  <g id="Grupo_10051" data-name="Grupo 10051" transform="translate(-1236.266 -729.083)" opacity="0.633">
    <g id="Grupo_10049" data-name="Grupo 10049" transform="translate(1235.839 729.083)">
      <circle id="Elipse_39" data-name="Elipse 39" cx="5" cy="5" r="5" transform="translate(0.428 0)" fill="#fff"/>
      <ellipse id="Elipse_34" data-name="Elipse 34" cx="5.5" cy="5" rx="5.5" ry="5" transform="translate(91.428 0)" fill="#fff" opacity="0.4"/>
      <ellipse id="Elipse_37" data-name="Elipse 37" cx="5.5" cy="5" rx="5.5" ry="5" transform="translate(45.428 0)" fill="#fff" opacity="0.7"/>
      <ellipse id="Elipse_33" data-name="Elipse 33" cx="6" cy="5" rx="6" ry="5" transform="translate(137.428 0)" fill="#fff" opacity="0.2"/>
      <ellipse id="Elipse_38" data-name="Elipse 38" cx="6" cy="5" rx="6" ry="5" transform="translate(22.428 0)" fill="#fff"/>
      <circle id="Elipse_35" data-name="Elipse 35" cx="5" cy="5" r="5" transform="translate(115.428 0)" fill="#fff" opacity="0.3"/>
      <circle id="Elipse_36" data-name="Elipse 36" cx="5" cy="5" r="5" transform="translate(69.428 0)" fill="#fff" opacity="0.5"/>
      <circle id="Elipse_32" data-name="Elipse 32" cx="5" cy="5" r="5" transform="translate(161.428 0)" fill="#fff" opacity="0.1"/>
    </g>
    <g id="Grupo_10052" data-name="Grupo 10052" transform="translate(1235.839 751.329)">
      <ellipse id="Elipse_39-2" data-name="Elipse 39" cx="5" cy="6" rx="5" ry="6" transform="translate(0.428 -0.246)" fill="#fff"/>
      <ellipse id="Elipse_34-2" data-name="Elipse 34" cx="5.5" cy="6" rx="5.5" ry="6" transform="translate(91.428 -0.246)" fill="#fff" opacity="0.4"/>
      <ellipse id="Elipse_37-2" data-name="Elipse 37" cx="5.5" cy="6" rx="5.5" ry="6" transform="translate(45.428 -0.246)" fill="#fff" opacity="0.7"/>
      <circle id="Elipse_33-2" data-name="Elipse 33" cx="6" cy="6" r="6" transform="translate(137.428 -0.246)" fill="#fff" opacity="0.2"/>
      <circle id="Elipse_38-2" data-name="Elipse 38" cx="6" cy="6" r="6" transform="translate(22.428 -0.246)" fill="#fff"/>
      <ellipse id="Elipse_35-2" data-name="Elipse 35" cx="5" cy="6" rx="5" ry="6" transform="translate(115.428 -0.246)" fill="#fff" opacity="0.3"/>
      <ellipse id="Elipse_36-2" data-name="Elipse 36" cx="5" cy="6" rx="5" ry="6" transform="translate(69.428 -0.246)" fill="#fff" opacity="0.5"/>
      <ellipse id="Elipse_32-2" data-name="Elipse 32" cx="5" cy="6" rx="5" ry="6" transform="translate(161.428 -0.246)" fill="#fff" opacity="0.1"/>
    </g>
    <g id="Grupo_10053" data-name="Grupo 10053" transform="translate(1235.839 774.884)">
      <circle id="Elipse_39-3" data-name="Elipse 39" cx="5" cy="5" r="5" transform="translate(0.428 0.199)" fill="#fff"/>
      <ellipse id="Elipse_34-3" data-name="Elipse 34" cx="5.5" cy="5" rx="5.5" ry="5" transform="translate(91.428 0.199)" fill="#fff" opacity="0.4"/>
      <ellipse id="Elipse_37-3" data-name="Elipse 37" cx="5.5" cy="5" rx="5.5" ry="5" transform="translate(45.428 0.199)" fill="#fff" opacity="0.7"/>
      <ellipse id="Elipse_33-3" data-name="Elipse 33" cx="6" cy="5" rx="6" ry="5" transform="translate(137.428 0.199)" fill="#fff" opacity="0.2"/>
      <ellipse id="Elipse_38-3" data-name="Elipse 38" cx="6" cy="5" rx="6" ry="5" transform="translate(22.428 0.199)" fill="#fff"/>
      <circle id="Elipse_35-3" data-name="Elipse 35" cx="5" cy="5" r="5" transform="translate(115.428 0.199)" fill="#fff" opacity="0.3"/>
      <circle id="Elipse_36-3" data-name="Elipse 36" cx="5" cy="5" r="5" transform="translate(69.428 0.199)" fill="#fff" opacity="0.5"/>
      <circle id="Elipse_32-3" data-name="Elipse 32" cx="5" cy="5" r="5" transform="translate(161.428 0.199)" fill="#fff" opacity="0.1"/>
    </g>
    <g id="Grupo_10054" data-name="Grupo 10054" transform="translate(1235.839 798.439)">
      <ellipse id="Elipse_39-4" data-name="Elipse 39" cx="5" cy="5.5" rx="5" ry="5.5" transform="translate(0.428 -0.356)" fill="#fff"/>
      <circle id="Elipse_34-4" data-name="Elipse 34" cx="5.5" cy="5.5" r="5.5" transform="translate(91.428 -0.356)" fill="#fff" opacity="0.4"/>
      <circle id="Elipse_37-4" data-name="Elipse 37" cx="5.5" cy="5.5" r="5.5" transform="translate(45.428 -0.356)" fill="#fff" opacity="0.7"/>
      <ellipse id="Elipse_33-4" data-name="Elipse 33" cx="6" cy="5.5" rx="6" ry="5.5" transform="translate(137.428 -0.356)" fill="#fff" opacity="0.2"/>
      <ellipse id="Elipse_38-4" data-name="Elipse 38" cx="6" cy="5.5" rx="6" ry="5.5" transform="translate(22.428 -0.356)" fill="#fff"/>
      <ellipse id="Elipse_35-4" data-name="Elipse 35" cx="5" cy="5.5" rx="5" ry="5.5" transform="translate(115.428 -0.356)" fill="#fff" opacity="0.3"/>
      <ellipse id="Elipse_36-4" data-name="Elipse 36" cx="5" cy="5.5" rx="5" ry="5.5" transform="translate(69.428 -0.356)" fill="#fff" opacity="0.5"/>
      <ellipse id="Elipse_32-4" data-name="Elipse 32" cx="5" cy="5.5" rx="5" ry="5.5" transform="translate(161.428 -0.356)" fill="#fff" opacity="0.1"/>
    </g>
    <g id="Grupo_10055" data-name="Grupo 10055" transform="translate(1235.839 820.686)">
      <circle id="Elipse_39-5" data-name="Elipse 39" cx="5" cy="5" r="5" transform="translate(0.428 0.397)" fill="#fff"/>
      <ellipse id="Elipse_34-5" data-name="Elipse 34" cx="5.5" cy="5" rx="5.5" ry="5" transform="translate(91.428 0.397)" fill="#fff" opacity="0.4"/>
      <ellipse id="Elipse_37-5" data-name="Elipse 37" cx="5.5" cy="5" rx="5.5" ry="5" transform="translate(45.428 0.397)" fill="#fff" opacity="0.7"/>
      <ellipse id="Elipse_33-5" data-name="Elipse 33" cx="6" cy="5" rx="6" ry="5" transform="translate(137.428 0.397)" fill="#fff" opacity="0.2"/>
      <ellipse id="Elipse_38-5" data-name="Elipse 38" cx="6" cy="5" rx="6" ry="5" transform="translate(22.428 0.397)" fill="#fff"/>
      <circle id="Elipse_35-5" data-name="Elipse 35" cx="5" cy="5" r="5" transform="translate(115.428 0.397)" fill="#fff" opacity="0.3"/>
      <circle id="Elipse_36-5" data-name="Elipse 36" cx="5" cy="5" r="5" transform="translate(69.428 0.397)" fill="#fff" opacity="0.5"/>
      <circle id="Elipse_32-5" data-name="Elipse 32" cx="5" cy="5" r="5" transform="translate(161.428 0.397)" fill="#fff" opacity="0.1"/>
    </g>
  </g>
</svg>
