<svg xmlns="http://www.w3.org/2000/svg" xmlns:xlink="http://www.w3.org/1999/xlink" width="1920" height="752.923" viewBox="0 0 1920 752.923">
  <defs>
    <linearGradient id="linear-gradient" x1="0.5" x2="0.043" y2="1.704" gradientUnits="objectBoundingBox">
      <stop offset="0" stop-color="#056cf2"/>
      <stop offset="1" stop-color="#07038c"/>
    </linearGradient>
    <clipPath id="clip-path">
      <path id="Caminho_4603" data-name="Caminho 4603" d="M0,0H1920V752.923H0Z" transform="translate(0 1731)" fill="url(#linear-gradient)"/>
    </clipPath>
  </defs>
  <g id="fundo_missao" transform="translate(0 -1731)">
    <g id="Grupo_de_máscara_60" data-name="Grupo de máscara 60" clip-path="url(#clip-path)">
      <g id="Grupo_10141" data-name="Grupo 10141">
        <path id="Caminho_4565" data-name="Caminho 4565" d="M0,0H1920V752.923H0Z" transform="translate(0 1731)" fill="url(#linear-gradient)"/>
        <g id="Grupo_10070" data-name="Grupo 10070" transform="translate(1036.183 2072.577)" opacity="0.067">
          <path id="Caminho_4518" data-name="Caminho 4518" d="M373.9,189.158l-29.532-.006c-8.243.072-17.866,7.486-17.866,21.532v28.57l97.238.012V239A49.848,49.848,0,0,0,373.9,189.158Z" transform="translate(493.076 85.386)" fill="#fff"/>
          <path id="Caminho_4519" data-name="Caminho 4519" d="M329.313,212.347c1.372-15.29,11.954-22.933,21.168-23.2h-6.112c-8.243.072-17.866,7.486-17.866,21.532v28.57h.4C327.728,230.032,328.519,221.211,329.313,212.347Z" transform="translate(493.076 85.386)" fill="#fff" style="mix-blend-mode: multiply;isolation: isolate"/>
          <path id="Caminho_4520" data-name="Caminho 4520" d="M65.372,289.431l.038,108.4h.266A49.835,49.835,0,0,0,115.512,348V289.413a58.276,58.276,0,0,1,116.552.017l.037,108.4h.266A49.835,49.835,0,0,0,282.2,348l-.015-59.085a108.409,108.409,0,0,0-216.817.514Z" transform="translate(0 70.038)" fill="#fff"/>
          <path id="Caminho_4521" data-name="Caminho 4521" d="M255.261,397.836a107.943,107.943,0,0,0,68.055-24.044h0l.043-.035c2.836-2.3,5.563-4.719,8.153-7.284l-.017-.017a108.9,108.9,0,0,0,20.316-27.75h0a72.525,72.525,0,0,0-68.055,1.563,58.121,58.121,0,0,1-14.178,5.667c-.179.046-1.785.425-2.493.572a58.282,58.282,0,1,1,40.8-82.127H224.522v.269a49.835,49.835,0,0,0,49.836,49.834H363.72V289.452l-.049-.182a108.415,108.415,0,0,0-113.58-108.127c-55.518,2.579-100.571,47.644-103.127,103.165A108.414,108.414,0,0,0,255.261,397.836Z" transform="translate(153.842 70.037)" fill="#fff"/>
          <path id="Caminho_4522" data-name="Caminho 4522" d="M438.892,395.742l-4.829-1.716c-20.865-7.408-43.736-2.784-61.043,11.024a58.273,58.273,0,0,1-94.581-45.582c0-.361,0-14.822-.006-35.052h59.215a49.834,49.834,0,0,0,49.833-49.834v-.268H278.421c-.006-40.534-.014-80.284-.014-80.284a50.1,50.1,0,0,0-50.1-50.1s-.038,216.765.075,219.766C230.546,420.61,277.46,466.663,334.4,467.85A108.443,108.443,0,0,0,438.892,395.742Z" transform="translate(307.644)" fill="#fff"/>
          <path id="Caminho_4523" data-name="Caminho 4523" d="M309.161,239.235v97.241a50.239,50.239,0,0,0,50.088-50.085v-75.7c0-14.115,9.719-21.538,17.991-21.538H359.246A50.23,50.23,0,0,0,309.161,239.235Z" transform="translate(460.33 85.382)" fill="#fff" fill-rule="evenodd"/>
          <path id="Caminho_4524" data-name="Caminho 4524" d="M373.309,302.8a54.672,54.672,0,0,1,54.357-54.533l.017-92.779a50.112,50.112,0,0,0-50.111,50.1l-.006,47.119-69.9-.011v.176A53.025,53.025,0,0,1,272.83,302.8l100.479.012Z" transform="translate(391.729 21.819)" fill="#fff"/>
          <path id="Caminho_4525" data-name="Caminho 4525" d="M266.933,284.392a108.427,108.427,0,0,0-68.855-100.785,99.543,99.543,0,0,1,16.734,126h52.17V284.574Z" transform="translate(250.58 74.916)" fill="#fff" opacity="0.7" style="mix-blend-mode: multiply;isolation: isolate"/>
          <path id="Caminho_4526" data-name="Caminho 4526" d="M110.405,310.911a104.818,104.818,0,0,1,9.557-43.817c.2-.471.419-.921.627-1.384.139-.289.274-.575.416-.861.7-1.511,1.459-2.989,2.285-4.425a105.288,105.288,0,0,1,125.17-49.539A108.381,108.381,0,0,0,65.372,289.431l.038,108.4h.266A49.835,49.835,0,0,0,115.512,348v-4.685A105.057,105.057,0,0,1,110.405,310.911Z" transform="translate(0 70.038)" fill="#fff" opacity="0.7" style="mix-blend-mode: multiply;isolation: isolate"/>
          <path id="Caminho_4527" data-name="Caminho 4527" d="M217.209,190.1A108.417,108.417,0,0,0,65.372,289.431l.038,108.4h.266A49.835,49.835,0,0,0,115.512,348V289.413a58.183,58.183,0,0,1,2.628-17.338C129.459,224.287,168.623,191.664,217.209,190.1Z" transform="translate(0 70.038)" fill="#fff"/>
          <path id="Caminho_4528" data-name="Caminho 4528" d="M351.7,264.053a72.555,72.555,0,0,0-59.509-2.516,104.768,104.768,0,0,1-14.819,7.105c-.465.194-.939.376-1.412.557-.217.081-.436.159-.656.237-1.043.384-2.1.745-3.165,1.072A105.3,105.3,0,0,1,146.9,220.559a108.384,108.384,0,0,0,176.3,78.58h0l.043-.035c2.836-2.3,5.563-4.719,8.153-7.284l-.017-.017a108.9,108.9,0,0,0,20.316-27.75Z" transform="translate(153.951 144.69)" fill="#fff" opacity="0.7" style="mix-blend-mode: multiply;isolation: isolate"/>
          <path id="Caminho_4529" data-name="Caminho 4529" d="M347.214,242.688a72.508,72.508,0,0,0-67.169,1.1,105.174,105.174,0,0,1-130.765-11.914,108.41,108.41,0,0,0,169.438,45.9h0l.043-.035c2.836-2.3,5.563-4.719,8.153-7.284l-.017-.017a108.9,108.9,0,0,0,20.316-27.75Z" transform="translate(158.44 166.055)" fill="#fff"/>
          <path id="Caminho_4530" data-name="Caminho 4530" d="M256.116,275.5a108.227,108.227,0,0,0-44.239-87.187,105.29,105.29,0,0,1-8.07,112.4h52.358V275.684Z" transform="translate(261.397 83.805)" fill="#fff"/>
          <path id="Caminho_4531" data-name="Caminho 4531" d="M278.425,220.135c0-15.643-.006-26.1-.006-26.1a50.1,50.1,0,0,0-50.1-50.1s-.015,72.746,0,134.537A105.567,105.567,0,0,1,278.425,220.135Z" transform="translate(307.669)" fill="#fff" opacity="0.7" style="mix-blend-mode: multiply;isolation: isolate"/>
          <path id="Caminho_4532" data-name="Caminho 4532" d="M434.038,260.657a61.66,61.66,0,0,0-37.876-.985,104.9,104.9,0,0,1-42.373,22.1,57.746,57.746,0,0,1-12.983,2.426,105.032,105.032,0,0,1-112.494-69.632c.012,9.459.026,15.29.043,15.764,2.166,56.913,49.08,102.965,106.021,104.152a108.436,108.436,0,0,0,104.488-72.108Z" transform="translate(307.668 133.37)" fill="#fff" opacity="0.7" style="mix-blend-mode: multiply;isolation: isolate"/>
          <path id="Caminho_4533" data-name="Caminho 4533" d="M278.425,219.843c0-15.481-.006-25.812-.006-25.812a50.1,50.1,0,0,0-50.1-50.1s-.012,54.521-.006,109.253A105.371,105.371,0,0,1,278.425,219.843Z" transform="translate(307.669)" fill="#fff"/>
          <path id="Caminho_4534" data-name="Caminho 4534" d="M430.309,232.817c-20.865-7.408-43.737-2.784-61.043,11.024a58.149,58.149,0,0,1-14.1,8.257,105.242,105.242,0,0,1-124.878-19.12c14.36,42.038,54.039,72.694,100.36,73.662a108.436,108.436,0,0,0,104.487-72.108Z" transform="translate(311.398 161.21)" fill="#fff"/>
        </g>
        <g id="Grupo_10071" data-name="Grupo 10071" transform="translate(-44 1743)" opacity="0.6">
          <g id="Grupo_10034" data-name="Grupo 10034" transform="translate(-162.599 25.895)" opacity="0.068">
            <path id="Caminho_4552" data-name="Caminho 4552" d="M276.357,190.586l-25.961,0c-7.247.063-15.709,6.58-15.709,18.928v25.116l85.485.01V234.4A43.823,43.823,0,0,0,276.357,190.586Z" fill="#fff"/>
            <path id="Caminho_4553" data-name="Caminho 4553" d="M237.159,210.973c1.206-13.44,10.509-20.159,18.607-20.39H250.4c-7.247.063-15.709,6.58-15.709,18.928v25.116h.349C235.764,226.52,236.46,218.765,237.159,210.973Z" fill="#fff" style="mix-blend-mode: multiply;isolation: isolate"/>
            <path id="Caminho_4554" data-name="Caminho 4554" d="M190.656,234.606c0,33.877,0,51.609,0,85.486a44.162,44.162,0,0,0,44.03-44.031V209.51c0-12.408,8.546-18.934,15.816-18.934H234.686A44.159,44.159,0,0,0,190.656,234.606Z" fill="#fff" fill-rule="evenodd"/>
            <path id="Caminho_4555" data-name="Caminho 4555" d="M234.528,171.694l.012-66.589a44.051,44.051,0,0,0-44.051,44.045l-.006,41.413-26.342,0h-2.535l-12.536,0a44.051,44.051,0,0,0-44.045,44.051l56.581-.01v.007l25.133,0v-.014a47.816,47.816,0,0,1,47.787-47.787h.014V171.694Z" fill="#fff"/>
          </g>
          <g id="Grupo_10039" data-name="Grupo 10039" transform="translate(-10.172 -95.105)" opacity="0.068">
            <path id="Caminho_4552-2" data-name="Caminho 4552" d="M276.357,190.586l-25.961,0c-7.247.063-15.709,6.58-15.709,18.928v25.116l85.485.01V234.4A43.823,43.823,0,0,0,276.357,190.586Z" fill="#fff"/>
            <path id="Caminho_4553-2" data-name="Caminho 4553" d="M237.159,210.973c1.206-13.44,10.509-20.159,18.607-20.39H250.4c-7.247.063-15.709,6.58-15.709,18.928v25.116h.349C235.764,226.52,236.46,218.765,237.159,210.973Z" fill="#fff" style="mix-blend-mode: multiply;isolation: isolate"/>
            <path id="Caminho_4554-2" data-name="Caminho 4554" d="M190.656,234.606c0,33.877,0,51.609,0,85.486a44.162,44.162,0,0,0,44.03-44.031V209.51c0-12.408,8.546-18.934,15.816-18.934H234.686A44.159,44.159,0,0,0,190.656,234.606Z" fill="#fff" fill-rule="evenodd"/>
            <path id="Caminho_4555-2" data-name="Caminho 4555" d="M234.528,171.694l.012-66.589a44.051,44.051,0,0,0-44.051,44.045l-.006,41.413-26.342,0h-2.535l-12.536,0a44.051,44.051,0,0,0-44.045,44.051l56.581-.01v.007l25.133,0v-.014a47.816,47.816,0,0,1,47.787-47.787h.014V171.694Z" fill="#fff"/>
          </g>
          <g id="Grupo_10045" data-name="Grupo 10045" transform="translate(-10.172 329.895)" opacity="0.068">
            <path id="Caminho_4552-3" data-name="Caminho 4552" d="M276.357,190.586l-25.961,0c-7.247.063-15.709,6.58-15.709,18.928v25.116l85.485.01V234.4A43.823,43.823,0,0,0,276.357,190.586Z" fill="#fff"/>
            <path id="Caminho_4553-3" data-name="Caminho 4553" d="M237.159,210.973c1.206-13.44,10.509-20.159,18.607-20.39H250.4c-7.247.063-15.709,6.58-15.709,18.928v25.116h.349C235.764,226.52,236.46,218.765,237.159,210.973Z" fill="#fff" style="mix-blend-mode: multiply;isolation: isolate"/>
            <path id="Caminho_4554-3" data-name="Caminho 4554" d="M190.656,234.606c0,33.877,0,51.609,0,85.486a44.162,44.162,0,0,0,44.03-44.031V209.51c0-12.408,8.546-18.934,15.816-18.934H234.686A44.159,44.159,0,0,0,190.656,234.606Z" fill="#fff" fill-rule="evenodd"/>
            <path id="Caminho_4555-3" data-name="Caminho 4555" d="M234.528,171.694l.012-66.589a44.051,44.051,0,0,0-44.051,44.045l-.006,41.413-26.342,0h-2.535l-12.536,0a44.051,44.051,0,0,0-44.045,44.051l56.581-.01v.007l25.133,0v-.014a47.816,47.816,0,0,1,47.787-47.787h.014V171.694Z" fill="#fff"/>
          </g>
          <g id="Grupo_10037" data-name="Grupo 10037" transform="translate(-79.599 171.895)" opacity="0.068">
            <path id="Caminho_4552-4" data-name="Caminho 4552" d="M276.357,190.586l-25.961,0c-7.247.063-15.709,6.58-15.709,18.928v25.116l85.485.01V234.4A43.823,43.823,0,0,0,276.357,190.586Z" fill="none" stroke="#fff" stroke-width="2"/>
            <path id="Caminho_4553-4" data-name="Caminho 4553" d="M237.159,210.973c1.206-13.44,10.509-20.159,18.607-20.39H250.4c-7.247.063-15.709,6.58-15.709,18.928v25.116h.349C235.764,226.52,236.46,218.765,237.159,210.973Z" fill="none" stroke="#fff" stroke-width="2" style="mix-blend-mode: multiply;isolation: isolate"/>
            <path id="Caminho_4554-4" data-name="Caminho 4554" d="M190.656,234.606c0,33.877,0,51.609,0,85.486a44.162,44.162,0,0,0,44.03-44.031V209.51c0-12.408,8.546-18.934,15.816-18.934H234.686A44.159,44.159,0,0,0,190.656,234.606Z" fill="none" stroke="#fff" stroke-width="2" fill-rule="evenodd"/>
            <path id="Caminho_4555-4" data-name="Caminho 4555" d="M234.528,171.694l.012-66.589a44.051,44.051,0,0,0-44.051,44.045l-.006,41.413-26.342,0h-2.535l-12.536,0a44.051,44.051,0,0,0-44.045,44.051l56.581-.01v.007l25.133,0v-.014a47.816,47.816,0,0,1,47.787-47.787h.014V171.694Z" fill="none" stroke="#fff" stroke-width="2"/>
          </g>
          <g id="Grupo_10038" data-name="Grupo 10038" transform="translate(72.828 50.895)" opacity="0.068">
            <path id="Caminho_4552-5" data-name="Caminho 4552" d="M276.357,190.586l-25.961,0c-7.247.063-15.709,6.58-15.709,18.928v25.116l85.485.01V234.4A43.823,43.823,0,0,0,276.357,190.586Z" fill="none" stroke="#fff" stroke-width="2"/>
            <path id="Caminho_4553-5" data-name="Caminho 4553" d="M237.159,210.973c1.206-13.44,10.509-20.159,18.607-20.39H250.4c-7.247.063-15.709,6.58-15.709,18.928v25.116h.349C235.764,226.52,236.46,218.765,237.159,210.973Z" fill="none" stroke="#fff" stroke-width="2" style="mix-blend-mode: multiply;isolation: isolate"/>
            <path id="Caminho_4554-5" data-name="Caminho 4554" d="M190.656,234.606c0,33.877,0,51.609,0,85.486a44.162,44.162,0,0,0,44.03-44.031V209.51c0-12.408,8.546-18.934,15.816-18.934H234.686A44.159,44.159,0,0,0,190.656,234.606Z" fill="none" stroke="#fff" stroke-width="2" fill-rule="evenodd"/>
            <path id="Caminho_4555-5" data-name="Caminho 4555" d="M234.528,171.694l.012-66.589a44.051,44.051,0,0,0-44.051,44.045l-.006,41.413-26.342,0h-2.535l-12.536,0a44.051,44.051,0,0,0-44.045,44.051l56.581-.01v.007l25.133,0v-.014a47.816,47.816,0,0,1,47.787-47.787h.014V171.694Z" fill="none" stroke="#fff" stroke-width="2"/>
          </g>
        </g>
      </g>
    </g>
  </g>
</svg>
